# xmcd CD database file
#
# Track frame offsets:
#	151
#	30611
#	46903
#	63191
#	96599
#	123834
#	152539
#	180361
#	207484
#
# Disc length: 2956 seconds
#
# Revision: 0
# Processed by: cddbd v1.5.1PL0 Copyright (c) Steve Scherf et al.
# Submitted via: CDex 1.51
#
DISCID=6f0b8a09
DTITLE=Medwyn Goodall - Chronicles
DYEAR=2005
DGENRE=New Age
TTITLE0=Hollow Earth
TTITLE1=The Kingdom of Kaldorn
TTITLE2=The Firestorms of Kundrah
TTITLE3=The Quest
TTITLE4=Refuge at Aquos
TTITLE5=Glendavern Castle
TTITLE6=The Vale of Eshmoor
TTITLE7=Shrine of Angels
TTITLE8=Descent into the Core
EXTD=YEAR: 2005
EXTT0=
EXTT1=
EXTT2=
EXTT3=
EXTT4=
EXTT5=
EXTT6=
EXTT7=
EXTT8=
PLAYORDER=
